<?xml version="1.0" encoding="UTF-8" standalone="no"?>
<!-- Created with Inkscape (http://www.inkscape.org/) -->

<svg
   width="236"
   height="60"
   viewBox="0 0 62.441665 15.875"
   version="1.1"
   id="svg865"
   inkscape:version="1.1.2 (b8e25be833, 2022-02-05)"
   sodipodi:docname="pipelite-logo-inkscape.svg"
   xmlns:inkscape="http://www.inkscape.org/namespaces/inkscape"
   xmlns:sodipodi="http://sodipodi.sourceforge.net/DTD/sodipodi-0.dtd"
   xmlns="http://www.w3.org/2000/svg"
   xmlns:svg="http://www.w3.org/2000/svg">
  <sodipodi:namedview
     id="namedview867"
     pagecolor="#ffffff"
     bordercolor="#ffffff"
     borderopacity="1"
     inkscape:pageshadow="2"
     inkscape:pageopacity="0"
     inkscape:pagecheckerboard="false"
     inkscape:document-units="px"
     showgrid="false"
     units="px"
     width="1122.5197px"
     showborder="false"
     inkscape:zoom="1.4805976"
     inkscape:cx="-65.514085"
     inkscape:cy="-73.618921"
     inkscape:window-width="1920"
     inkscape:window-height="1017"
     inkscape:window-x="-8"
     inkscape:window-y="-8"
     inkscape:window-maximized="1"
     inkscape:current-layer="g1172" />
  <defs
     id="defs862" />
  <g
     inkscape:label="Livello 1"
     inkscape:groupmode="layer"
     id="layer1">
    <g
       id="g1172"
       transform="translate(-309.62548,-48.650202)"
       style="display:inline">
      <g
         id="g47762"
         transform="matrix(0.64953294,0,0,0.64953294,109.82061,18.45728)"
         style="fill:#58b1b1;fill-opacity:1">
        <path
           id="path48438"
           style="fill:#58b1b1;fill-opacity:1"
           d="m 343.94922,46.822266 c -2.1127,0.180079 -3.7767,2.235728 -3.61133,4.333984 -2.40363,0.787174 -4.80873,1.569904 -7.21289,2.355469 -1.45761,-2.807681 -5.65696,-3.644811 -8.01758,-1.50586 -0.96242,0.766526 -1.52469,1.904953 -1.88086,3.058594 -2.27091,-0.02487 -4.54299,0.03988 -6.8125,-0.06836 -0.63685,-2.576254 -4.20628,-3.815163 -6.24151,-2.072671 -1.98763,1.430773 -2.06252,4.772491 -0.0605,6.229136 1.71733,1.418444 4.58229,1.013433 5.75259,-0.91248 0.34548,-0.33004 0.33705,-1.120486 0.81783,-1.179532 h 6.58711 c 0.40786,2.229196 2.40106,3.963686 4.62109,4.244141 0.77755,0.129519 1.84178,-0.0261 2.625,-0.382813 0.77498,-0.343217 0.97099,-0.468894 0.97099,-0.468894 1.01461,1.016236 3.01792,3.337817 4.03292,4.35366 -1.32576,2.333255 0.4951,5.699627 3.19726,5.777453 2.45092,0.255167 4.77544,-2.192117 4.21531,-4.63889 -0.35085,-2.114828 -2.58731,-3.712491 -4.69968,-3.171766 -0.5133,0.04974 -1.04576,0.487388 -1.49621,0.425101 -1.31288,-1.34287 -2.69863,-2.617088 -3.91394,-4.052055 0.68056,-1.125932 0.99631,-2.43712 0.96875,-3.748046 2.41133,-0.794005 4.82301,-1.58693 7.23437,-2.38086 1.40479,2.083329 4.83173,2.278387 6.37305,0.251953 1.60537,-1.879166 0.8916,-5.233013 -1.47094,-6.122248 -0.61814,-0.274136 -1.30489,-0.385409 -1.97828,-0.325017 z"
           sodipodi:nodetypes="scccccccccccccccccccccccss" />
        <path
           id="path74559"
           style="fill:#58b1b1;fill-opacity:1;stroke:#008080;stroke-width:2.95238;stroke-miterlimit:4;stroke-dasharray:none;opacity:1;stroke-opacity:1"
           d="m 1241.5469,182.17773 a 29.52381,29.52381 0 0 0 -27.1172,17.90039 c 0.5825,10e-4 1.1643,0.005 1.7441,0.0156 1.4026,-3.06564 3.4078,-5.83945 5.8086,-8.20117 10.455,-10.98368 29.9341,-10.26206 39.9746,0.9082 0.5967,-0.1757 1.1981,-0.36949 1.7969,-0.55273 a 29.52381,29.52381 0 0 0 -22.207,-10.07032 z m 29.3496,32.55079 c -0.5761,0.18823 -1.1529,0.37876 -1.7285,0.56445 -0.2969,2.33355 -0.8515,4.64774 -1.7422,6.82812 0.3861,0.44843 0.7855,0.8849 1.1894,1.31641 a 29.52381,29.52381 0 0 0 2.2813,-8.70898 z m -56.3106,8.95703 a 29.52381,29.52381 0 0 0 26.961,17.53906 29.52381,29.52381 0 0 0 9.8398,-1.70899 c -0.3652,-0.36757 -0.7356,-0.73387 -1.0937,-1.10351 -12.9019,4.63096 -28.5706,-2.24218 -34.1407,-14.71094 -0.5194,-0.009 -1.0447,-0.01 -1.5664,-0.0156 z"
           transform="scale(0.26458333)" />
      </g>
      <text
         xml:space="preserve"
         style="font-style:normal;font-weight:normal;font-size:8.46667px;line-height:1.25;font-family:sans-serif;fill:#008080;fill-opacity:1;stroke:none;stroke-width:0.264583"
         x="334.83017"
         y="59.479931"
         id="text134644"><tspan
           sodipodi:role="line"
           id="tspan134642"
           style="font-style:normal;font-variant:normal;font-weight:normal;font-stretch:normal;font-size:8.46667px;font-family:Cutive;-inkscape-font-specification:Cutive;fill:#008080;fill-opacity:1;stroke-width:0.264583"
           x="334.83017"
           y="59.479931">pipelite</tspan></text>
    </g>
  </g>
</svg>
